<?xml version="1.0" encoding="utf-8" ?>
<svg xmlns="http://www.w3.org/2000/svg" xmlns:xlink="http://www.w3.org/1999/xlink" width="32" height="32">
	<clipPath id="cl_4">
		<rect width="32" height="32" rx="16" ry="16"/>
	</clipPath>
	<g clip-path="url(#cl_4)">
		<path fill="#A79DFD" transform="scale(0.03125 0.03125)" d="M0 0L1024 0L1024 1024L0 1024L0 0Z"/>
		<path transform="scale(0.03125 0.03125)" d="M509.079 362.669C515.584 362.237 521.831 363.604 528.01 365.51C553.145 373.263 577.745 383.177 602.492 392.09L767.789 452.994L864.98 488.312C884.89 495.444 905.315 502.129 924.741 510.483C930.273 512.862 933.752 517.244 935.901 522.748C937.961 528.024 938.109 533.228 937.514 538.798C936.538 547.935 934.735 557.067 933.261 566.138L926.458 609.662L903.003 764.865L891.105 843.29C889.265 855.809 886.171 887.179 881.69 897.212C878.633 904.057 873.617 909.429 867.074 913.089C860.144 916.966 851.878 919.221 844.414 921.938C832.644 926.198 820.933 930.62 809.285 935.203L655.13 994.97C644.022 999.175 632.003 1001.4 620.246 998.708C610.769 996.538 601.656 993.009 592.523 989.735C581.678 985.919 570.858 982.034 560.062 978.081L471.919 946.658L325.513 893.648L276.919 876.084C266.358 872.278 255.616 868.701 245.313 864.241C240.801 862.288 235.873 859.691 233.293 855.327C231.425 852.168 230.352 847.844 231.392 844.247C232.392 840.79 235.034 838.452 237.975 836.593C243.021 833.405 248.693 830.946 253.994 828.199C267.65 821.125 281.473 814.401 295.159 807.393C324.898 792.069 354.482 776.445 383.907 760.525C398.669 752.65 413.71 745.391 428.246 737.076L463.697 512.745C467.645 485.922 471.743 459.12 475.993 432.343C478.085 418.558 479.397 404.22 482.475 390.627C483.875 384.445 486.156 377.515 490.187 372.536C495.099 366.47 501.485 363.608 509.079 362.669Z"/>
		<path fill="#A79DFD" transform="scale(0.03125 0.03125)" d="M485.746 394.122C495.909 396.949 506.094 401.33 516.061 404.905C541.184 413.955 566.246 423.173 591.245 432.558L774.737 499.563C808.05 512.081 841.456 524.349 874.953 536.364C884.591 539.797 894.024 543.925 903.746 547.086C901.775 556.172 900.728 565.624 899.353 574.829L891.205 630.039L863.812 807.571L856.107 856.871C854.685 866.156 853.776 876.29 851.226 885.315C785.97 862.118 720.855 838.526 655.885 814.54C636.044 807.238 616.337 799.535 596.444 792.378C568.015 782.149 539.557 771.781 510.941 762.088C484.785 753.228 458.394 744.961 432.311 735.911L462.112 547.047C468.129 511.103 473.748 475.093 478.967 439.025C481.202 424.076 483.905 409.118 485.746 394.122Z"/>
		<path transform="scale(0.03125 0.03125)" d="M511.723 439.361C519.052 439.878 530.19 445.258 537.449 447.829L580.205 462.967L774.126 533.81L841 557.806L860.417 565.158C862.752 566.051 865.351 566.662 867.584 567.784C868.252 568.119 869.168 568.671 869.328 569.436C870.152 573.367 864.486 604.867 863.542 611.525L829.818 840.121C829.547 841.873 829.23 844.487 828.157 845.909C827.304 847.039 826.669 846.94 825.387 847.036C816.742 844.597 808.111 840.762 799.64 837.699L743.08 817.309C668.76 790.714 594.823 763.062 521.291 734.362C509.125 729.717 496.59 725.992 484.249 721.834C478.79 719.994 471.944 718.419 467.145 715.268C467.055 714.606 467.041 714.627 467.036 713.835C466.975 704.449 470.839 689.369 472.425 679.496C476.541 652.317 480.863 625.171 485.391 598.058L501.703 493.558L506.597 461.684C507.565 455.354 508.279 448.811 509.746 442.584C510.099 441.088 510.608 440.4 511.723 439.361Z"/>
		<path fill="#2B2D42" transform="scale(0.03125 0.03125)" d="M540.89 483.524C563.765 492.28 587.384 499.696 610.498 507.856L723.348 548.68L813.833 581.692C825.969 586.039 838.109 591.279 850.474 594.855C851.692 591.364 853.091 586.935 852.547 583.239C851.742 581.981 850.157 581.482 848.819 580.935C832.163 574.13 814.884 568.581 797.999 562.358L692.712 523.904C693.292 522.84 693.864 521.745 694.224 520.583C694.702 519.036 694.336 517.832 693.592 516.43L693.528 515.877C692.987 511.486 691.998 509.498 688.497 506.786C694.867 507.47 719.152 517.916 727.138 520.795C773.072 537.355 819.448 555.225 865.735 570.503C857.852 629.631 849.296 688.669 840.069 747.603L831.053 806.001C829.238 818.203 828.008 830.933 825.36 842.962C813.646 839.355 802.213 834.7 790.668 830.572C765.724 821.82 740.852 812.866 716.054 803.712L656.696 782.18C636.09 774.654 615.765 767.202 595.931 757.755C595.802 757.727 595.67 757.709 595.543 757.671C591.394 756.434 584.828 754.249 582.841 750.297C573.884 746.959 564.775 742.96 555.563 740.452C552.149 740.585 547.316 738.138 544.048 736.945C544.168 736.891 544.29 736.839 544.409 736.783C544.608 736.689 544.803 736.588 545.003 736.496C547.057 735.549 548.68 734.253 549.575 732.081C550.019 731.002 550.238 730.013 549.672 728.924C548.129 725.956 518.071 717.288 513.016 715.631C511.91 718.894 511.446 722.273 510.895 725.663L504.481 723.79L505.131 722.617C506.028 723.433 505.717 723.469 507.051 723.411C507.891 722.257 508.078 721.138 508.327 719.761C509.444 713.584 509.909 707.179 510.824 700.951C512.52 689.4 514.529 677.901 516.297 666.361C529.151 671.051 599.092 698.223 605.209 697.695C588.878 691.564 572.371 685.965 556.003 679.946C542.823 675.1 529.716 669.691 516.337 665.443L517.247 658.613C520.264 659.9 523.331 661.012 526.415 662.124L526.527 661.68C523.479 659.895 520.315 658.406 517.123 656.901C518.499 644.352 519.88 630.98 522.737 618.688C530.387 621.469 538.182 623.91 545.784 626.803C558.393 631.601 643.043 665.417 648.558 664.797C606.438 649.538 564.871 632.761 522.787 617.385L523.749 610.547C527.754 612.069 531.773 613.418 535.869 614.673C534.602 612.424 525.818 610.075 523.25 609.128C523.863 599.171 526.701 589.351 527.915 579.429C530.062 561.885 532.6 544.429 534.887 526.911C536.779 512.418 538.331 497.927 540.89 483.524Z"/>
		<path fill="#A79DFD" transform="scale(0.03125 0.03125)" d="M523.749 610.547C527.754 612.069 531.773 613.418 535.869 614.673C541.66 617.386 547.946 619.329 553.9 621.712C575.249 630.255 596.852 637.915 618.278 646.201C666.269 665.034 714.55 683.119 763.103 700.452C777.457 705.64 791.617 711.546 806.068 716.432C805.936 718.461 805.876 720.523 805.524 722.527L705.552 685.48C691.922 680.198 678.194 675.174 664.374 670.412C659.264 668.602 653.789 665.924 648.558 664.797C606.438 649.538 564.871 632.761 522.787 617.385L523.749 610.547Z"/>
		<path fill="#A79DFD" transform="scale(0.03125 0.03125)" d="M517.247 658.613C520.264 659.9 523.331 661.012 526.415 662.124C535.18 666.495 545.38 669.376 554.617 672.733L610.463 692.847C647.248 706.234 683.963 719.81 720.607 733.575L771.851 752.557C779.524 755.385 787.563 757.768 795.095 760.906C796.335 761.423 798.912 762.263 799.282 763.682C799.57 764.786 799.395 765.594 799.24 766.703C798.372 767.7 798.262 767.908 796.843 767.946C794.829 768 658.317 716.908 644.817 711.821C638.441 709.418 609.826 698.182 605.209 697.695C588.878 691.564 572.371 685.965 556.003 679.946C542.823 675.1 529.716 669.691 516.337 665.443L517.247 658.613Z"/>
		<path fill="#A79DFD" transform="scale(0.03125 0.03125)" d="M555.797 737.783C554.833 736.175 554.825 734.66 555.281 732.782C555.458 732.055 555.605 731.873 555.937 731.299C556.221 731.184 556.486 731.002 556.789 730.953C557.621 730.816 596.263 745.344 599.558 746.814C601.232 747.561 602.222 748.08 602.914 749.854C603.356 750.986 603.717 752.481 603.196 753.645C602.605 754.966 600.549 756.421 599.145 756.731C598.369 756.902 597.538 756.926 596.746 756.96L595.931 757.755C595.802 757.727 595.67 757.709 595.543 757.671C591.394 756.434 584.828 754.249 582.841 750.297C573.884 746.959 564.775 742.96 555.563 740.452L555.797 737.783Z"/>
		<path transform="scale(0.03125 0.03125)" d="M555.797 737.783C554.833 736.175 554.825 734.66 555.281 732.782C555.458 732.055 555.605 731.873 555.937 731.299C556.221 731.184 556.486 731.002 556.789 730.953C557.621 730.816 596.263 745.344 599.558 746.814C601.232 747.561 602.222 748.08 602.914 749.854C603.356 750.986 603.717 752.481 603.196 753.645C602.605 754.966 600.549 756.421 599.145 756.731C598.369 756.902 597.538 756.926 596.746 756.96L595.931 757.755C595.802 757.727 595.67 757.709 595.543 757.671C591.394 756.434 584.828 754.249 582.841 750.297C588.267 752.099 593.952 754.8 599.573 755.719L600.458 754.961C601.048 752.955 601.654 751.444 600.859 749.432C598.979 747.619 562.605 734.249 557.019 732.08L555.797 737.783Z"/>
		<path fill="#A79DFD" transform="scale(0.03125 0.03125)" d="M578.569 579.087C584.776 580.693 591.154 583.695 597.183 585.953L642.385 603.254L758.34 645.643C771.955 650.546 785.494 655.655 798.953 660.97C802.944 662.572 807.246 663.895 811.11 665.759C811.946 666.163 812.496 666.566 813.044 667.33C813.99 668.648 813.244 670.636 812.875 672.066C803.893 669.753 794.997 665.69 786.325 662.397C773.921 657.761 761.485 653.209 749.019 648.741L650.218 612.435C625.896 603.197 601.448 594.294 576.88 585.728C577.328 583.447 577.826 581.296 578.569 579.087Z"/>
		<path fill="#ADD6D0" transform="scale(0.03125 0.03125)" d="M545.362 495.362C550.515 496.213 564.556 502.612 570.389 504.77C588.541 511.486 607.926 517.23 625.562 525.09C625.197 528.04 624.829 530.939 624.154 533.838C606.891 528.196 590.036 521.58 572.963 515.427C563.485 512.011 552.706 509.372 543.849 504.713C543.04 501.796 544.514 498.186 545.362 495.362Z"/>
		<path fill="#A79DFD" transform="scale(0.03125 0.03125)" d="M611.987 752.342C616.243 753.695 620.471 755.716 624.607 757.419L649.163 767.429C670.294 775.839 691.762 783.548 713.134 791.324C716.382 792.505 729.97 796.543 731.706 798.233C732.056 798.574 732.211 799.069 732.463 799.487C732.434 801.158 731.922 801.974 731.063 803.329C709.778 796.767 689.119 787.876 668.169 780.302C649.606 773.591 627.522 767.146 609.864 758.842C610.365 756.506 610.83 754.469 611.987 752.342Z"/>
		<path fill="#ADD6D0" transform="scale(0.03125 0.03125)" d="M685.842 546.751C695.166 549.15 704.644 553.323 713.724 556.584C729.212 562.146 745.12 567.424 760.309 573.75C762.066 574.482 764.104 575.26 764.675 577.269C765.269 579.357 764.311 581.435 763.512 583.318C762.693 583.372 762.079 583.418 761.269 583.241C755.524 581.99 744.319 577.166 738.303 575.006L704.964 562.823C698.365 560.403 691.478 558.237 685.132 555.212C685.186 552.408 685.581 549.546 685.842 546.751Z"/>
		<path fill="#A79DFD" transform="scale(0.03125 0.03125)" d="M584.592 546.322C591.369 547.377 615.501 558.188 623.768 561.449C640.238 567.948 657.218 573.609 673.501 580.511C673.301 582.955 672.941 585.402 672.652 587.837C666.647 586.546 660.637 583.878 654.92 581.665C641.896 576.622 629.141 571.13 616.28 565.699C605.426 561.116 594.263 557.318 583.396 552.773C582.73 550.6 583.795 548.357 584.592 546.322Z"/>
		<path fill="#A79DFD" transform="scale(0.03125 0.03125)" d="M539.028 543.365C546.057 544.9 553.422 548.908 560.228 551.417C579.114 558.379 598.035 565.515 617.06 572.071C616.936 574.322 616.547 576.576 616.241 578.809C606.173 576.417 593.59 570.242 583.69 566.403C568.594 560.548 553.166 555.435 537.945 549.897C538.072 547.698 538.602 545.523 539.028 543.365Z"/>
		<path fill="#ADD6D0" transform="scale(0.03125 0.03125)" d="M616.112 659.461C622.249 660.905 628.397 663.666 634.332 665.813C644.33 669.429 654.771 672.707 664.358 677.291C664.381 678.654 664.373 680.017 664.332 681.38C664.264 683.108 664.143 685.175 662.819 686.418C654.273 683.627 645.818 680.441 637.349 677.419C629.259 674.533 620.855 671.943 613.229 667.967C613.778 664.911 614.402 662.097 616.112 659.461Z"/>
		<path fill="#A79DFD" transform="scale(0.03125 0.03125)" d="M613.312 675.28C633.968 681.913 654.362 689.337 674.449 697.534C674.404 699.865 674.041 702.069 673.645 704.357C665.961 701.838 613.469 683.016 612.076 680.838C612.271 678.869 612.697 677.159 613.312 675.28Z"/>
		<path fill="#A79DFD" transform="scale(0.03125 0.03125)" d="M587.06 529.354C587.246 529.401 587.431 529.445 587.616 529.494C593.711 531.103 643.658 549.981 644.253 551.377C645.01 553.154 644.14 555.484 643.589 557.213C638.373 556.199 587.962 538.213 586.256 536.311C585.949 533.887 586.551 531.709 587.06 529.354Z"/>
		<path fill="#ADD6D0" transform="scale(0.03125 0.03125)" d="M616.61 607.566C622.401 609.176 628.149 611.521 633.814 613.546C642.328 616.589 650.981 619.529 659.273 623.135C659.189 626.252 659.248 629.505 657.693 632.282C649.382 629.188 641.048 626.156 632.692 623.186C626.506 621.015 619.938 619.24 614.132 616.189C614.363 612.84 614.945 610.511 616.61 607.566Z"/>
		<path fill="#ADD6D0" transform="scale(0.03125 0.03125)" d="M629.936 526.845C644.336 531.507 660.712 536.844 674.475 543.08C674.402 545.222 674.924 549.877 673.751 551.472C658.527 547.1 643.286 540.807 628.436 535.248C628.685 532.404 629.346 529.634 629.936 526.845Z"/>
		<path fill="#A79DFD" transform="scale(0.03125 0.03125)" d="M615.561 723.881C621.218 725.599 626.817 728.024 632.367 730.095C644.29 734.601 656.252 739.006 668.249 743.309C668.125 745.53 668.31 748.407 667.328 750.415C660.425 748.564 653.518 745.673 646.778 743.268C635.875 739.378 624.563 735.614 614.044 730.772C614.314 728.321 614.631 726.182 615.561 723.881Z"/>
		<path fill="#ADD6D0" transform="scale(0.03125 0.03125)" d="M563.503 689.331C571.957 691.273 595.519 698.553 601.831 703.138C602.417 705.469 601.004 709.826 600.531 712.295C595.676 710.904 590.841 708.585 586.092 706.796C577.712 703.639 568.915 700.849 560.883 696.887C561.496 694.129 562.072 691.818 563.503 689.331Z"/>
		<path fill="#ADD6D0" transform="scale(0.03125 0.03125)" d="M569.536 642.358C574.733 643.323 603.44 653.629 606.768 656.441C607.284 659.211 606.478 662.454 605.516 665.068C601.041 663.978 569.662 652.526 568.336 650.899C567.511 647.859 568.596 645.232 569.536 642.358Z"/>
		<path fill="#ADD6D0" transform="scale(0.03125 0.03125)" d="M527.622 626.385C536.614 627.826 552.661 634.883 561.488 638.584C561.264 642.043 560.747 645.299 560.031 648.689C555.52 647.17 526.926 637.4 525.598 635.066C525.276 631.937 526.373 629.202 527.622 626.385Z"/>
		<path fill="#A79DFD" transform="scale(0.03125 0.03125)" d="M558.969 718.937C563.648 719.595 601.216 732.911 604.164 735.342C604.161 737.595 603.434 739.577 602.77 741.704C601.417 741.794 600.043 741.244 598.782 740.829C593.829 739.198 558.183 726.812 557.747 725.546C557.06 723.554 558.282 720.783 558.969 718.937Z"/>
		<path fill="#ADD6D0" transform="scale(0.03125 0.03125)" d="M542.986 512.441C554.544 516.898 567.23 519.846 578.324 525.271C578.322 528.205 578.108 531.227 577.309 534.058C571.356 533.074 547 525.073 542.151 521.935C540.669 519.325 542.297 515.16 542.986 512.441Z"/>
		<path fill="#ADD6D0" transform="scale(0.03125 0.03125)" d="M520.97 673.524C532.185 676.906 544.397 680.418 554.833 685.752C554.831 688.833 554.008 691.85 552.89 694.696C541.497 691.288 529.545 687.046 518.568 682.449C518.827 679.137 518.98 676.332 520.97 673.524Z"/>
		<path fill="#ADD6D0" transform="scale(0.03125 0.03125)" d="M533.554 578.02C542.238 578.156 560.277 586.699 569.005 590.158C568.781 593.195 568.237 595.908 567.441 598.839C563.901 599.163 537.935 588.534 532.56 586.559C532.45 583.494 532.474 580.934 533.554 578.02Z"/>
		<path fill="#ADD6D0" transform="scale(0.03125 0.03125)" d="M576.77 592.55C587.284 596.543 597.901 600.232 608.353 604.393C607.998 607.533 607.42 610.428 606.531 613.459C600.659 612.438 580.598 604.829 574.871 602.036C575.363 598.815 575.881 595.689 576.77 592.55Z"/>
		<path fill="#ADD6D0" transform="scale(0.03125 0.03125)" d="M516.828 702.874C525.959 704.49 541.084 710.504 550.036 714.035C549.875 716.889 549.673 719.953 548.647 722.632C537.411 719.491 525.921 715.578 515.077 711.277C515.559 708.412 515.667 705.585 516.828 702.874Z"/>
		<path fill="#A79DFD" transform="scale(0.03125 0.03125)" d="M560.555 703.88C571.922 707.73 583.262 711.872 594.502 716.083C595.591 716.491 599.762 717.799 600.111 718.913C600.677 720.718 599.539 723.059 598.883 724.717C598.174 724.813 597.508 724.873 596.797 724.745C592.915 724.043 561.017 712.287 559.751 710.545C559.504 708.206 560.055 706.146 560.555 703.88Z"/>
		<path fill="#A79DFD" transform="scale(0.03125 0.03125)" d="M540.587 529.415C546.982 529.868 568.66 538.782 576.198 541.412L575.171 549.383C574.586 549.353 574.499 549.368 573.838 549.222C569.939 548.36 540.761 538.073 539.757 535.662C538.964 533.759 539.983 531.239 540.587 529.415Z"/>
		<path fill="#A79DFD" transform="scale(0.03125 0.03125)" d="M532.011 593.969C539.427 594.98 559.451 603.303 567.381 606.335C566.866 608.925 566.329 611.51 565.769 614.09C556.185 610.161 538.612 605.934 530.898 601.098C530.249 598.818 531.175 596.107 532.011 593.969Z"/>
		<path fill="#A79DFD" transform="scale(0.03125 0.03125)" d="M536.217 562.91C542.64 564.34 565.516 573.15 571.635 576.203C571.014 578.521 570.487 580.867 569.929 583.201C561.266 579.403 552.059 576.724 543.135 573.601C540.504 572.681 535.903 571.461 534.663 568.875C534.61 566.69 535.441 564.909 536.217 562.91Z"/>
		<path fill="#A79DFD" transform="scale(0.03125 0.03125)" d="M525.446 642.766C537.051 645.786 548.845 651.091 560.11 655.298L558.388 662.134C546.801 658.383 535.32 654.309 523.959 649.919C524.323 647.473 524.683 645.129 525.446 642.766Z"/>
		<path fill="#A79DFD" transform="scale(0.03125 0.03125)" d="M518.577 689.007C522.874 689.851 527.518 691.992 531.62 693.563L553.004 701.732C552.433 703.98 551.814 706.216 551.146 708.438C546.975 707.895 521.076 698.077 517.446 695.753C516.54 693.355 517.624 691.219 518.577 689.007Z"/>
		<path fill="#A79DFD" transform="scale(0.03125 0.03125)" d="M567.92 658.315C580.262 662.6 592.513 667.141 604.666 671.936C604.445 674.171 603.992 676.36 603.573 678.564C592.078 674.412 577.015 669.823 566.374 664.506C566.809 662.411 567.326 660.371 567.92 658.315Z"/>
		<path fill="#A79DFD" transform="scale(0.03125 0.03125)" d="M575.124 609.887C581.222 611.226 601.543 618.426 606.547 621.469C607.487 623.874 606.502 626.391 605.703 628.699C598.442 626.371 579.818 620.121 574.021 616.453C573.079 614.103 574.206 612.056 575.124 609.887Z"/>
		<path fill="#A79DFD" transform="scale(0.03125 0.03125)" d="M612.993 737.955C621.351 742.048 631.118 744.993 639.914 748.144C639.601 750.62 639.27 752.971 638.557 755.375C633.788 755.068 616.961 747.633 612.038 745.162C612.112 742.629 612.193 740.395 612.993 737.955Z"/>
		<path fill="#A79DFD" transform="scale(0.03125 0.03125)" d="M615.011 624.472C619.487 626.438 636.777 630.239 638.375 635.011C639 636.878 637.97 638.89 637.102 640.48C633.027 639.097 616.514 633.373 613.955 631.535C613.312 631.074 613.048 630.689 612.975 629.917C612.772 627.761 613.821 626.161 615.011 624.472Z"/>
		<path fill="#2B2D42" transform="scale(0.03125 0.03125)" d="M513.376 443.032C529.691 449.576 546.501 454.863 563.07 460.714L635.289 486.821C645.015 490.315 654.594 494.156 664.294 497.701C670.28 499.889 676.899 501.462 682.517 504.413C682.506 504.433 682.499 504.456 682.483 504.472C681.325 505.603 679.589 506.994 678.968 508.505C677.442 512.224 679.34 516.031 680.783 519.402L519.865 462.593C519.826 463.737 519.813 464.857 519.643 465.991C518.702 467.647 518.634 470.092 519.109 471.902L520.054 472.536L519.815 476.185C522.601 477.247 525.401 478.27 528.216 479.255C524.564 509.171 519.827 539.035 515.66 568.891L494.593 720.884C490.108 719.334 484.948 716.971 480.271 716.332L478.161 715.785C475.979 714.657 473.412 714.001 471.082 713.207L501.895 517.466C505.612 492.63 510.43 467.978 513.376 443.032Z"/>
		<path fill="#2B2D42" transform="scale(0.03125 0.03125)" d="M517.14 475.186L519.815 476.185C522.601 477.247 525.401 478.27 528.216 479.255C524.564 509.171 519.827 539.035 515.66 568.891L494.593 720.884C490.108 719.334 484.948 716.971 480.271 716.332C484.29 686.204 489.997 656.243 493.807 626.11C496.942 609.23 499.809 591.671 501.618 574.602C503.243 570.869 503.436 564.502 504.096 560.381C506.903 542.995 509.507 525.577 511.905 508.13C513.502 497.125 515.627 486.198 517.14 475.186Z"/>
		<path transform="scale(0.03125 0.03125)" d="M499.684 574.325C499.775 574.629 499.876 574.93 499.956 575.238C500.419 577.023 499.071 581.377 499.902 582.386C500.11 579.863 500.477 577.544 501.029 575.079L501.618 574.602C499.809 591.671 496.942 609.23 493.807 626.11C489.997 656.243 484.29 686.204 480.271 716.332L478.161 715.785C480.462 695.613 483.976 675.59 487.106 655.536C488.762 644.925 489.675 633.475 492.286 623.124C492.708 617.497 493.971 611.776 494.855 606.187C496.571 595.583 498.18 584.962 499.684 574.325Z"/>
		<path transform="scale(0.03125 0.03125)" d="M514.776 475.29C515.497 475.249 516.44 475.074 517.14 475.186C515.627 486.198 513.502 497.125 511.905 508.13C509.507 525.577 506.903 542.995 504.096 560.381C503.436 564.502 503.243 570.869 501.618 574.602L501.029 575.079C500.477 577.544 500.11 579.863 499.902 582.386C499.071 581.377 500.419 577.023 499.956 575.238C499.876 574.93 499.775 574.629 499.684 574.325C499.818 566.14 503.17 550.975 504.506 542.334C507.962 519.986 511.12 497.612 514.776 475.29Z"/>
		<path transform="scale(0.03125 0.03125)" d="M514.776 475.29C515.282 472.109 515.14 468.811 515.76 465.669C516.06 464.151 516.489 463.127 517.751 462.23L519.865 462.593C519.826 463.737 519.813 464.857 519.643 465.991C518.702 467.647 518.634 470.092 519.109 471.902L520.054 472.536L519.815 476.185L517.14 475.186C516.44 475.074 515.497 475.249 514.776 475.29Z"/>
		<path fill="#A79DFD" transform="scale(0.03125 0.03125)" d="M526.39 456.674C526.62 456.73 526.85 456.781 527.078 456.844C537.288 459.654 547.272 463.712 557.246 467.261C564.219 469.742 571.783 471.763 578.376 475.148C579.538 475.745 580.337 476.219 580.989 477.397C581.192 479.089 580.596 480.371 580.015 481.919C574.604 480.743 529.051 464.323 525.585 461.066C525.232 459.404 525.821 458.202 526.39 456.674Z"/>
		<path fill="#A79DFD" transform="scale(0.03125 0.03125)" d="M519.643 465.991C589.353 490.032 658.773 514.905 727.888 540.605L794.143 564.628C812.422 571.137 830.945 577.363 848.849 584.85C848.507 586.846 848.204 588.857 847.813 590.843C824.678 581.692 801.216 573.686 777.81 565.274L691.295 533.899C634.368 513.02 577.286 492.565 520.054 472.536L519.109 471.902C518.634 470.092 518.702 467.647 519.643 465.991Z"/>
		<path fill="#A79DFD" transform="scale(0.03125 0.03125)" d="M531.188 480.52L538.131 482.955C534.359 503.911 532.435 525.391 529.549 546.498L514.28 656.126C512.549 670.105 510.678 684.067 508.669 698.009C507.563 706.189 506.794 714.533 505.131 722.617L504.481 723.79L497.331 721.447C501.375 699.609 503.554 677.437 506.896 655.489C515.633 597.256 523.731 538.93 531.188 480.52Z"/>
		<path fill="#A79DFD" transform="scale(0.03125 0.03125)" d="M513.64 717.145C518.953 718.389 524.359 720.699 529.572 722.411C535.833 724.467 542.321 726.04 548.413 728.557C547.95 730.716 547.257 732.709 546.511 734.781C540.806 736.217 519.297 727.27 512.224 725.425C512.443 722.476 512.748 719.991 513.64 717.145Z"/>
		<path fill="#A79DFD" transform="scale(0.03125 0.03125)" d="M682.637 519.891C680.874 516.708 679.608 512.977 680.632 509.308C681.057 507.789 681.979 506.681 683.412 506.006C684.995 505.262 686.97 506.245 688.497 506.786C691.998 509.498 692.987 511.486 693.528 515.877L693.592 516.43L693.447 516.95C693.192 517.897 692.97 518.889 692.585 519.794C692.112 520.904 691.139 521.997 689.973 522.373C687.321 523.23 684.727 521.252 682.637 519.891Z"/>
		<path fill="#A79DFD" transform="scale(0.03125 0.03125)" d="M431.054 740.411C435.615 740.391 465.052 751.11 471.481 753.249C570.072 786.699 668.087 821.823 765.484 858.605L818.954 878.183C829.308 881.868 839.96 885.024 850.12 889.205C849.059 891.641 847.525 895.558 845.156 896.966C839.964 900.051 832.978 901.908 827.275 904.077L791 918.072L655.339 971.481C644.73 975.772 635.325 978.78 623.786 976.593C611.554 974.274 596.657 967.39 584.701 963.062L500.147 932.319L240.642 839.51L390.127 761.915C403.734 754.689 417.619 747.959 431.054 740.411Z"/>
		<path transform="scale(0.03125 0.03125)" d="M447.463 768.479C452.538 771.312 459.28 773.064 464.798 775.134C482.521 781.601 500.279 787.974 518.071 794.251L691.624 858.437L758.366 883.574C763.158 885.401 768.101 886.832 772.83 888.833C774.679 889.615 776.012 890.468 777.378 891.942C777.582 892.579 778.015 893.228 777.69 893.871C777.19 894.859 776.202 895.506 775.258 896.028C770.575 898.617 765.211 900.595 760.33 902.821C747.73 908.568 735.137 914.177 722.397 919.614C713.927 923.229 704.594 928.384 695.661 930.481C691.341 930.619 688.013 930.032 683.922 928.671C670.741 924.286 657.778 918.893 644.722 914.113L528.738 870.539L433.122 834.302C412.129 826.558 390.811 819.418 369.967 811.31C368.004 810.546 365.767 809.76 364.213 808.305C364.275 808.123 364.317 807.932 364.399 807.759C364.762 806.995 365.252 806.546 365.956 806.1C372.555 801.928 384.034 797.432 391.479 793.978C410.062 785.308 428.724 776.807 447.463 768.479Z"/>
		<path fill="#A79DFD" transform="scale(0.03125 0.03125)" d="M446.911 772.982C462.549 777.685 478.495 784.323 493.95 789.865L623.262 837.582C659.947 850.645 696.477 864.14 732.845 878.063C745.145 882.731 761.197 887.19 772.596 893.11C753.916 901.167 735.436 909.62 716.692 917.551C710.03 920.37 703.483 923.784 696.628 926.068C693.889 926.987 691.163 926.899 688.407 926.125C678.925 923.461 669.33 919.004 660.016 915.627C631.96 905.453 604.226 894.545 576.31 884.019L436.199 831.269C414.88 823.295 393.343 815.879 372.109 807.678C378.537 803.832 385.948 800.938 392.755 797.799C410.768 789.495 429.232 781.98 446.911 772.982Z"/>
		<path transform="scale(0.03125 0.03125)" d="M449.63 788.945C454.932 789.323 465.409 794.41 470.745 796.416C478.693 799.371 486.67 802.246 494.675 805.042L728.05 890.248C729.594 890.826 731.38 891.325 732.626 892.426C731.245 895.113 701.957 907.398 696.626 909.816C695.058 910.596 693.335 911.078 691.677 911.638C686.157 910.133 680.868 907.885 675.525 905.861C664.944 901.852 654.4 897.692 643.788 893.776L485.079 834.545C473.873 830.364 420.678 812.004 415.038 807.288L415.307 806.285C419.689 801.913 442.236 792.492 449.63 788.945Z"/>
		<path fill="#787C8F" transform="scale(0.03125 0.03125)" d="M548.205 843.961C557.97 846.704 572.467 852.157 581.402 856.757C577.923 858.812 574.107 860.436 570.464 862.186C559.408 857.433 547.635 854.136 536.483 849.473L548.205 843.961Z"/>
		<path fill="#787C8F" transform="scale(0.03125 0.03125)" d="M602.601 863.446C610.188 865.932 617.555 868.87 624.912 871.96L614.276 878.605C606.341 876.243 598.525 872.942 590.836 869.879C594.9 867.968 598.731 865.714 602.601 863.446Z"/>
		<path fill="#787C8F" transform="scale(0.03125 0.03125)" d="M657.224 868.44C662.353 869.03 671.796 873.745 676.814 875.783C673.264 878.234 669.43 880.384 665.751 882.642C665.68 882.681 665.615 882.737 665.537 882.759C662.685 883.581 649.102 877.434 645.774 876.147C649.367 873.244 653.309 870.875 657.224 868.44Z"/>
		<path fill="#787C8F" transform="scale(0.03125 0.03125)" d="M628.635 873.362C635.503 874.465 643.327 878.417 649.802 880.981C646.133 883.188 642.427 885.333 638.685 887.414C634.973 888.082 621.738 881.768 617.785 880.203C621.166 877.584 624.952 875.521 628.635 873.362Z"/>
		<path fill="#787C8F" transform="scale(0.03125 0.03125)" d="M506.504 814.356C511.288 814.145 523.904 819.722 528.869 821.553C525.01 823.42 521.097 825.176 517.137 826.818C516.978 826.896 516.827 826.994 516.659 827.05C512.779 828.338 499.832 822.568 495.946 820.958C499.162 818.418 502.978 816.444 506.504 814.356Z"/>
		<path fill="#787C8F" transform="scale(0.03125 0.03125)" d="M680.198 877.443C685.393 877.469 694.745 882.023 699.96 884.032L688.242 891.471C683.449 890.685 674.229 886.515 669.103 884.699C672.544 882.014 676.514 879.792 680.198 877.443Z"/>
		<path fill="#787C8F" transform="scale(0.03125 0.03125)" d="M684.374 893.47C691.28 896.234 698.457 898.339 705.387 901.121C701.637 902.908 697.935 904.793 694.285 906.773C693.997 906.896 693.713 907.028 693.422 907.141C689.1 908.829 678.858 903.091 674.716 901.278C678.069 898.84 681.519 896.498 684.374 893.47Z"/>
		<path fill="#787C8F" transform="scale(0.03125 0.03125)" d="M635.611 860.565C641.479 862.62 647.318 864.753 653.129 866.964C649.738 869.636 645.626 871.786 641.931 874.016C641.712 874.245 641.345 874.262 641.045 874.366C635.355 872.865 629.498 871.006 624.217 868.39C627.877 865.541 631.708 863.059 635.611 860.565Z"/>
		<path fill="#787C8F" transform="scale(0.03125 0.03125)" d="M471.743 814.919C478.454 816.538 485.645 819.176 491.863 822.192C488.458 824.407 484.982 826.358 481.059 827.488C475.997 828.828 466.066 823.338 461.302 821.33C464.835 819.287 468.278 817.076 471.743 814.919Z"/>
		<path fill="#787C8F" transform="scale(0.03125 0.03125)" d="M703.567 885.863C708.262 885.658 717.687 890.792 722.036 893.046C718.214 895.22 714.158 896.936 710.148 898.727C706.125 899.101 696.253 894.44 692.209 892.921C695.893 890.385 699.714 888.128 703.567 885.863Z"/>
		<path fill="#787C8F" transform="scale(0.03125 0.03125)" d="M613.926 852.911C619.498 853.58 626.232 857.007 631.498 859.049C627.786 861.562 624.072 863.981 620.196 866.238C617.448 866.789 606.33 861.693 603.155 860.496L613.926 852.911Z"/>
		<path fill="#787C8F" transform="scale(0.03125 0.03125)" d="M532.73 822.929C537.733 823.173 544.759 826.957 549.403 829.004C545.397 831.544 540.982 833.644 536.8 835.893C531.009 834.078 525.285 831.996 519.548 830.012C523.863 827.542 528.348 825.282 532.73 822.929Z"/>
		<path fill="#787C8F" transform="scale(0.03125 0.03125)" d="M448.963 807.162C451.154 806.238 452.09 806.622 454.246 807.5C456.199 808.294 458.158 809.067 460.176 809.686C462.279 810.887 465.163 811.102 466.699 813.2C467.146 813.81 466.961 813.69 466.771 814.561C464.047 816.783 459.206 818.087 455.893 819.274L455.897 819.27C450.345 817.403 444.743 815.531 439.476 812.947C442.506 810.715 445.648 808.935 448.963 807.162Z"/>
		<path fill="#787C8F" transform="scale(0.03125 0.03125)" d="M573.033 838.378C578.189 838.311 585.778 842.195 590.672 844.123C586.869 846.692 582.721 848.576 578.584 850.527C574.21 851.61 566.018 846.947 561.763 845.092C565.372 842.647 569.259 840.56 573.033 838.378Z"/>
		<path fill="#787C8F" transform="scale(0.03125 0.03125)" d="M595.055 845.528C600.213 847.4 605.28 849.553 610.365 851.614C606.573 854.202 602.6 856.924 598.368 858.733C592.712 856.992 587.229 854.735 581.553 853.051C585.804 850.186 590.528 847.927 595.055 845.528Z"/>
		<path fill="#787C8F" transform="scale(0.03125 0.03125)" d="M553.815 830.418C559.066 831.561 564.863 834.415 569.793 836.557C565.702 838.939 561.573 841.255 557.407 843.503C552.36 841.326 547.002 839.918 542.001 837.632C545.959 835.259 549.897 832.854 553.815 830.418Z"/>
		<path fill="#787C8F" transform="scale(0.03125 0.03125)" d="M483.932 805.527C489.894 807.678 495.914 809.723 501.688 812.349C498.716 814.692 495.406 816.725 492.268 818.847C486.146 817.135 480.436 814.236 474.21 812.757C477.393 810.271 480.635 807.86 483.932 805.527Z"/>
		<path fill="#787C8F" transform="scale(0.03125 0.03125)" d="M665.822 887.431C669.405 887.509 674.869 889.518 678.088 891.002C679.135 891.485 679.504 891.531 679.935 892.612C679.525 893.196 679.147 893.732 678.616 894.217C676.611 896.048 672.432 899.504 669.716 899.539C664.335 897.682 658.848 895.967 653.684 893.558C657.614 891.327 661.767 889.429 665.822 887.431Z"/>
		<path fill="#787C8F" transform="scale(0.03125 0.03125)" d="M461.543 797.9C467.592 799.363 473.395 801.664 479.191 803.905C476.219 806.364 473.066 808.46 469.844 810.574C467.544 809.781 464.965 808.576 462.584 808.193C459.297 806.644 455.327 805.977 452.332 803.924C455.345 801.83 458.323 799.67 461.543 797.9Z"/>
		<path fill="#787C8F" transform="scale(0.03125 0.03125)" d="M526.494 836.397C532.558 837.934 538.561 840.22 544.395 842.462C540.872 844.422 536.923 845.901 533.231 847.537C528.208 848.54 520.04 844.216 515.305 842.402C518.991 840.32 522.721 838.318 526.494 836.397Z"/>
		<path fill="#787C8F" transform="scale(0.03125 0.03125)" d="M495.732 823.913C499.876 824.001 509.022 828.216 513.372 829.659C509.469 831.705 505.384 833.325 501.312 835C500.841 835.247 500.521 835.439 499.997 835.605C496.911 836.583 488.342 831.424 485.457 829.943L495.732 823.913Z"/>
		<path fill="#787C8F" transform="scale(0.03125 0.03125)" d="M437.472 799.283C439.526 800.974 443.907 802.55 445.171 804.667L445.079 805.24C441.375 806.683 437.701 808.895 434.726 811.529C430.336 809.983 426.004 808.275 421.739 806.407C427.093 804.2 432.312 801.919 437.472 799.283Z"/>
		<path fill="#787C8F" transform="scale(0.03125 0.03125)" d="M586.513 857.991C590.113 858.131 595.118 860.815 598.555 862.19C594.815 864.33 591.051 866.428 587.266 868.485C583.323 866.785 579.133 865.496 575.083 864.064L586.513 857.991Z"/>
		<path fill="#787C8F" transform="scale(0.03125 0.03125)" d="M653.092 882.383C655.926 882.87 659.157 884.48 661.895 885.48C658.181 887.582 654.512 889.711 650.914 892.009L650.558 892.283C647.774 891.807 645.048 890.536 642.41 889.542C645.861 886.976 649.465 884.686 653.092 882.383Z"/>
		<path fill="#787C8F" transform="scale(0.03125 0.03125)" d="M515.999 831.923C518.484 832.713 520.918 833.674 523.361 834.587L511.077 840.905C508.676 840.372 506.338 839.344 504.036 838.48C507.824 836.007 511.996 834.027 515.999 831.923Z"/>
		<path fill="#787C8F" transform="scale(0.03125 0.03125)" d="M450.399 793.411C452.758 794.273 455.112 795.09 457.359 796.221C454.387 798.234 450.985 800.182 448.42 802.681C446.466 800.424 443.468 798.989 440.924 797.485C444.174 796.338 447.274 794.854 450.399 793.411Z"/>
		<path transform="scale(0.03125 0.03125)" d="M472.893 866.477C473.601 866.615 474.304 866.775 475.001 866.955C481.634 868.618 488.044 871.398 494.441 873.801C501.521 876.436 508.637 878.977 515.786 881.421C532.404 887.245 548.98 893.186 565.513 899.244C573.462 902.157 581.797 904.723 589.518 908.162C591.037 908.839 592.213 909.364 593.064 910.786C589.112 915.142 560.704 927.204 553.499 930.532C552.656 930.559 551.854 930.605 551.034 930.365C547.027 929.195 543.027 927.136 539.109 925.642C529.973 922.221 520.818 918.85 511.646 915.529L465.869 898.885C456.396 895.517 446.714 892.459 437.34 888.843C435.772 888.238 434.162 887.766 433.299 886.294C436.411 882.123 465.924 870.119 472.893 866.477Z"/>
		<path fill="#A79DFD" transform="scale(0.03125 0.03125)" d="M473.315 870.977C478.917 871.085 500.341 880.101 507.483 882.657C533.458 891.949 559.888 900.64 585.453 910.984C574.92 916.439 563.915 921.301 553.114 926.218C546.668 925.507 532.691 918.946 525.852 916.476C497.522 906.24 469.326 895.536 440.84 885.751C451.842 881.59 462.586 875.855 473.315 870.977Z"/>
		<path fill="#A79DFD" transform="scale(0.03125 0.03125)" d="M508.01 366.612C514.762 366.067 521.119 367.373 527.528 369.414C558.57 379.301 589.177 391.313 619.807 402.441L802.473 469.86C832.003 480.862 861.853 491.004 891.373 502.038L913.15 510.249C916.901 511.673 921.046 512.912 924.612 514.732C928.991 516.965 931.809 521.921 933.146 526.502C934.184 530.058 934.349 533.76 933.949 537.427C933.262 543.724 932.004 550.025 931.034 556.288L924.419 598.274C919.011 635.298 913.409 672.294 907.616 709.26C901.821 749.937 895.619 790.555 889.01 831.108C886.131 849.893 884.16 869.128 880.429 887.745C879.669 891.539 878.456 895.201 876.505 898.557C873.611 903.423 869.404 907.376 864.366 909.96C853.904 915.247 841.725 918.68 830.695 922.798L770.66 945.832L687.136 978.472C673.816 983.643 657.549 990.952 644.022 994.433C635.042 996.743 626.27 996.222 617.356 993.861C607.886 991.353 598.802 987.534 589.567 984.297L533.435 964.501L331.314 891.458L268.885 869.065C260.13 865.846 249.669 863.024 241.755 858.118C238.837 856.309 235.901 853.609 235.185 850.099C234.634 847.397 235.442 844.763 236.935 842.515C238.664 842.279 239.997 843.272 241.545 844.016L486.887 931.802L573.632 963.179C587.806 968.328 601.964 974.486 616.437 978.701C623.211 980.673 630.504 981.477 637.534 980.742C647.227 979.728 656.776 975.046 665.784 971.534L694.921 960.124L773.931 929.132L818.547 911.65C827.085 908.387 836.043 905.542 844.387 901.842C846.866 900.743 849.17 899.171 850.827 896.995C852.799 894.406 853.98 891.011 854.812 887.884C857.233 878.793 858.168 869.062 859.636 859.76C862.559 841.323 865.383 822.869 868.107 804.401L905.4 560.571C906.73 551.333 908.045 541.785 911.137 532.949C912.228 529.828 917.101 524.677 916.712 521.869C915.635 521.22 915.588 521.297 914.327 521.47C908.402 525.542 906.129 536.267 904.285 542.846C863.135 528.79 822.376 513.095 781.574 498.057C722.582 476.071 663.461 454.435 604.212 433.151L522.644 403.179C510.793 398.888 498.745 393.221 486.481 390.447C487.608 386.224 488.951 382.069 491.213 378.301C495.166 371.715 500.766 368.48 508.01 366.612Z"/>
		<path transform="scale(0.03125 0.03125)" d="M442.555 31.4976C449.176 33.4501 458.389 34.5532 464.099 38.1699C466.833 39.9015 468.125 41.8039 468.756 44.9402C470.482 53.5265 469.848 63.0847 469.818 71.8399L469.637 111.749L469.501 195.525C469.454 211.346 470.324 227.881 468.74 243.592C468.289 248.061 466.763 252.689 464.186 256.381C461.856 259.718 457.612 261.944 453.862 263.341C446.804 265.971 439.52 268.126 432.385 270.548C412.024 277.475 391.621 284.276 371.177 290.951L221.417 340.971L139.675 368.39C129.935 371.557 119.711 376.16 109.708 378.15C103.007 378.043 95.3577 374.661 89.3124 371.769C86.3076 370.331 83.3299 367.976 82.2443 364.712C80.0817 358.209 81.1383 332.555 81.1323 324.06L81.254 252.309L81.371 204.801C81.3467 195.164 80.7909 185.256 81.4307 175.653C81.7857 170.323 83.3236 164.999 85.6816 160.215C88.7267 154.037 93.285 148.6 99.4733 145.413C107.917 141.063 118.545 139.01 127.611 136.03L193.991 114.067L391.241 48.4068C408.314 42.6706 425.524 37.3553 442.555 31.4976Z"/>
		<path fill="#A79DFD" transform="scale(0.03125 0.03125)" d="M456.684 40.0976C458.548 40.0411 460.194 40.3952 461.736 41.4843C463.63 42.8178 464.893 44.8724 465.226 47.1652C466.374 54.6927 465.632 63.1864 465.607 70.8031L465.551 114.419C465.592 143.179 465.457 171.939 465.146 200.697C465.043 214.101 465.907 228.007 464.771 241.333C464.386 245.843 462.901 251.789 459.935 255.296C458.289 257.242 454.909 258.563 452.538 259.497C442.913 263.294 432.673 265.974 422.849 269.263L357.865 291.186L190.214 346.866C171.868 353.243 153.457 359.433 134.986 365.436C126.121 368.409 116.143 373.53 106.815 374.17C105.303 373.646 103.791 373.125 102.414 372.294C100.174 370.942 98.5497 368.936 97.9951 366.339C96.5829 359.723 97.3927 351.418 97.3719 344.614L97.2406 302.039L97.128 216.807C97.1504 202.986 96.3719 188.626 97.4574 174.86C97.7647 170.963 99.1361 167.72 101.257 164.465C103.892 160.421 107.409 156.608 111.92 154.719C119.082 151.722 127.042 149.819 134.449 147.465C145.724 143.815 156.966 140.058 168.171 136.196L306.067 90.3528L409.648 55.5833L437.567 46.1528C443.846 44.0052 450.184 41.4806 456.684 40.0976Z"/>
		<path transform="scale(0.03125 0.03125)" d="M450.151 48.5575C451.774 48.5364 453.637 48.6005 454.997 49.6081C456.853 50.9823 457.675 53.1899 458.127 55.3804C459.502 62.0411 458.445 70.2919 458.408 77.1616L458.355 117.35L458.316 199.498C458.317 212.601 459.064 226.057 458.248 239.108C458.051 242.259 457.389 245.825 455.505 248.442C453.278 251.537 448.403 253.866 444.886 255.179C423.735 263.074 401.842 269.447 380.454 276.701L205.119 334.966L138.017 357.44C130.32 360.001 119.93 364.682 112.223 365.832C111.013 365.52 109.745 365.224 108.614 364.683C106.813 363.823 105.335 362.32 104.691 360.409C103.804 357.776 103.874 354.349 103.791 351.585C103.487 341.465 103.802 331.29 103.757 321.164L103.572 250.032C103.504 233.19 103.568 216.348 103.762 199.507C103.827 192.527 103.418 185.331 103.923 178.381C104.158 175.161 104.871 171.887 106.443 169.041C108.95 164.504 113.544 160.94 118.221 158.904C130.964 153.357 145.281 149.68 158.496 145.256L251.241 114.778L382.29 70.9431L424.248 57.011C432.847 54.1515 441.416 50.9691 450.151 48.5575Z"/>
		<path fill="#A79DFD" transform="scale(0.03125 0.03125)" d="M450.069 53.0744C450.485 53.039 451.108 52.9659 451.511 53.0294C452.851 53.2409 453.062 53.7085 453.753 54.7443C454.731 62.4157 454.054 70.8254 454.019 78.5801L453.939 122.687L453.994 197.522C454.016 210.651 454.565 224.018 453.95 237.125C453.811 240.067 453.415 243.52 451.886 246.078C450.702 248.06 448.216 249.485 446.13 250.304C424.743 258.695 402.222 265.016 380.406 272.223L263.688 311.197L170.832 341.965C158.202 346.308 145.54 350.556 132.846 354.707C126.035 356.995 119.293 359.702 112.342 361.514C110.67 360.788 109.84 360.322 108.765 358.867C106.751 350.585 108.004 332.004 107.997 322.756L107.967 244.643L108.058 199.77C108.062 192.737 107.56 185.435 108.015 178.434C108.206 175.505 108.828 172.649 110.381 170.124C112.809 166.176 116.813 163.617 121.044 161.938C125.982 159.978 131.329 158.602 136.394 156.962C147.198 153.493 157.977 149.946 168.729 146.32L306.039 100.997L398.578 69.8403L428.711 59.877C435.774 57.5293 442.845 54.8737 450.069 53.0744Z"/>
		<path fill="#202675" transform="scale(0.03125 0.03125)" d="M211.361 169.194C220.955 167.837 230.851 170.781 238.71 176.259C247.963 182.708 253.316 192.44 255.276 203.414C259.061 224.616 250.976 245.879 238.846 262.99C226.393 280.559 209.589 292.729 188.113 296.434C177.823 297.139 167.955 295.03 159.699 288.604C150.197 281.208 144.67 269.808 143.3 257.991C140.994 238.098 148.24 215.43 160.717 199.905C173.639 183.826 190.403 171.393 211.361 169.194Z"/>
		<path fill="#A79DFD" transform="scale(0.03125 0.03125)" d="M211.837 173.701C219.331 172.877 228.285 174.895 234.651 178.942C242.94 184.212 248.798 193.384 250.865 202.903C255.189 222.818 247.122 243.094 236.566 259.566C235.534 254.048 233.507 248.953 229.537 244.863C224.956 240.145 218.636 238.073 212.161 238.069C199.056 238.061 187.372 245.384 178.393 254.344C170.403 263.192 165.521 273.941 162.858 285.483C153.884 277.201 148.943 268.902 147.538 256.604C145.244 236.522 153.318 215.749 165.707 200.225C177.243 185.769 193.316 175.709 211.837 173.701Z"/>
		<path fill="#202675" transform="scale(0.03125 0.03125)" d="M204.365 190.128C207.698 190.172 210.802 191.041 213.548 192.987C216.57 195.129 218.258 198.356 218.867 201.961C220.125 209.403 217.891 216.815 213.609 222.891C208.752 229.783 202.716 234.012 194.349 235.47C191.164 235.405 188.385 234.923 185.616 233.248C182.537 231.386 180.663 228.488 179.879 225.004C178.303 218.005 180.687 210.363 184.469 204.442C189.056 197.262 195.966 191.919 204.365 190.128Z"/>
		<path fill="#A79DFD" transform="scale(0.03125 0.03125)" d="M204.102 195.079C206.644 195.05 208.875 195.619 211.009 197.04C213.363 198.606 214.599 200.917 215.067 203.668C216.072 209.57 213.918 215.71 210.591 220.547C206.752 226.127 201.79 229.684 195.126 230.95C193.086 230.9 191.162 230.632 189.332 229.678C186.633 228.271 184.864 226.234 184.114 223.262C182.719 217.737 184.789 210.984 187.756 206.306C191.675 200.124 197.116 196.723 204.102 195.079Z"/>
		<path fill="#A79DFD" transform="scale(0.03125 0.03125)" d="M211.582 242.215C215.937 242.431 219.532 243.309 223.248 245.685C227.675 248.516 231.383 253.272 232.429 258.491C233.104 261.856 232.359 264.81 230.318 267.539C221.287 279.611 204.876 289.542 190.027 291.941C181.994 293.073 175.322 291.73 167.974 288.417C168.285 277.458 172.371 266.944 179.541 258.651C187.6 249.115 199.136 243.197 211.582 242.215Z"/>
		<path transform="scale(0.03125 0.03125)" d="M285.833 148.212C286.737 148.361 287.562 148.57 288.443 148.812C288.698 149.177 288.817 149.294 288.944 149.782C289.971 153.722 288.94 179.131 288.923 185.038C288.852 209.563 289.732 234.283 288.973 258.779C288.931 260.152 288.815 261.062 288.205 262.313C286.772 262.132 286.621 262.224 285.623 261.212C285.002 259.375 284.855 257.642 284.794 255.721C284.397 243.395 284.982 230.926 284.973 218.582L284.871 176.358C284.853 168.577 283.667 155.49 285.833 148.212Z"/>
		<path fill="#474E8F" transform="scale(0.03125 0.03125)" d="M394.575 145.351C398.733 145.521 422.455 154.467 425.772 156.913C426.579 157.509 426.816 157.616 426.968 158.632C421.614 166.209 406.172 179.412 398.683 186.562L396.907 187.841C395.511 187.931 395.504 187.931 394.357 187.13L394.16 186.001C395.611 180.955 414.398 164.98 419.64 160.051C412.303 155.884 399.231 153.183 393.698 149.03C393.517 147.445 393.962 146.8 394.575 145.351Z"/>
		<path fill="#474E8F" transform="scale(0.03125 0.03125)" d="M346.685 163.293C348.033 163.965 348.775 164.368 349.404 165.78C348.92 168.106 327.722 187.618 324.446 191.005C331.256 193.34 338.957 195.434 345.324 198.805C346.99 199.687 348.103 200.34 348.674 202.184C347.966 203.524 347.619 203.659 346.302 204.459C340.762 202.915 323.226 196.892 319.204 193.721C318.278 192.991 318.516 192.915 318.402 191.831C320.36 186.28 341.276 166.59 346.685 163.293Z"/>
		<path fill="#474E8F" transform="scale(0.03125 0.03125)" d="M379.415 142.702C380.579 143.181 381.262 143.587 382.159 144.471C382.315 145.754 364.845 201.92 362.816 206.07C362.379 205.968 361.641 205.806 361.24 205.658C359.943 205.177 359.909 204.877 359.372 203.681C360.163 195.707 376.242 146.548 379.415 142.702Z"/>
		<path fill="#A79DFD" transform="scale(0.03125 0.03125)" d="M442.666 36.0412C444.696 35.938 446.74 37.3853 448.495 38.31C421.766 46.4858 395.304 55.7853 368.814 64.709L234.451 109.694L152.706 136.875C139.07 141.377 119.797 146.52 107.28 152.615C102.672 154.859 99.0742 159.74 96.7123 164.213C94.3572 168.672 93.3329 173.225 93.0023 178.226C92.4535 186.528 92.8378 195.019 92.8542 203.349L92.8698 246.64L92.9142 319.227C92.9225 330.597 91.5217 359.249 94.3522 368.261C94.4075 368.437 94.4675 368.612 94.5252 368.787L94.1036 369.434C92.9941 369.042 91.8839 368.64 90.8199 368.134C88.7339 367.143 86.9703 365.857 86.2313 363.576C84.5213 358.296 85.591 331.076 85.5979 324.118L85.8564 224.145L85.8533 192.74C85.8067 186.173 85.4075 179.421 85.9426 172.88C86.2873 168.667 87.8253 164.45 89.8667 160.767C92.2024 156.553 96.181 151.345 100.604 149.253C105.228 147.065 110.651 145.826 115.56 144.328C121.248 142.556 126.911 140.706 132.548 138.781L217.887 110.598L357.288 64.0719C373.439 58.5908 389.628 53.218 405.851 47.9539C418.059 43.8773 430.271 39.4999 442.666 36.0412Z"/>
		<path transform="scale(0.03125 0.03125)" d="M727.093 142.039C732.627 142.033 759.125 152.778 765.909 155.17C766.351 163.605 767.193 172.022 767.526 180.457C773.271 186.214 779.701 191.269 785.999 196.398L807.722 189.064C814.116 195.042 819.257 203.492 824.223 210.651C826.746 214.288 834.078 223.338 833.316 227.539C826.961 232.402 810.901 238.43 802.97 242C806.306 248.856 808.076 255.81 809.513 263.254C820.868 265.324 833.237 266.594 844.199 270.051L844.475 297.789C834.801 303.538 822.127 306.089 811.057 307.101C809.979 312.193 808.639 317.023 806.578 321.812C813.107 327.855 822.496 341.327 826.93 349.043C820.815 354.266 812.99 357.819 806.102 361.948C799.747 365.758 793.232 370.486 786.497 373.524C784.258 374.535 782.305 375.197 779.845 375.289C776.462 373.941 772.222 365.601 770.008 362.523C765.903 364.141 761.713 365.421 757.5 366.718L757.623 376.446L757.424 382.64C750.75 387.04 742.612 389.596 735.038 392.021C723.468 389.738 706.825 383.766 695.573 379.382C694.277 371.516 694.491 362.882 694.1 354.907C682.337 349.361 673.044 339.299 664.74 329.549C660.884 330.662 657.365 332.732 653.532 333.913C652.26 334.305 650.712 334.729 649.488 334.042C643.02 330.413 622.559 290.104 620.842 281.758C626.94 278.891 633.626 277.306 640.113 275.576C635.351 254.624 635.92 239.413 642.333 219.045C636.538 213.261 629.057 208.939 623.625 202.851C624.894 198.474 649.716 174.896 654.544 170.533C658.284 167.152 671.927 164.807 677.163 164.028C680.502 167.375 683.673 170.818 686.807 174.354C692.536 173.375 698.214 172.547 703.999 171.978C703.93 166.997 702.628 154.751 704.626 150.637C706.411 146.96 722.537 143.472 727.093 142.039Z"/>
		<path fill="#A79DFD" transform="scale(0.03125 0.03125)" d="M707.791 151.593C718.27 153.165 735.955 159.973 746.326 163.702C747.144 171.607 747.859 179.523 748.47 187.446C758.004 190.822 765.843 198.832 773.627 205.004C779.843 203.502 786.062 200.728 792.134 198.642C794.687 202.882 797.975 206.804 800.797 210.883C805.571 217.921 810.02 225.174 814.129 232.62C810.465 234.104 801.869 236.517 799.789 239.923C799.2 240.887 799.087 242.065 799.327 243.155C800.023 246.307 801.791 249.509 802.816 252.611C804.317 257.154 804.96 261.867 805.637 266.584C817.06 269 828.641 270.887 840.113 273.095C840.278 280.55 840.321 288.008 840.239 295.464C829.284 299.828 819.976 302.392 808.185 302.824C806.443 310.136 804.303 316.853 801.331 323.75C799.019 324.988 793.31 327.279 792.114 329.561C793.779 336.618 800.867 344.352 804.344 351.032L804.711 351.746C798.491 357.137 786.308 365.973 778.943 369.241C776.227 365.244 773.866 361.164 770.925 357.299C760.607 362.342 750.435 364.602 738.985 364.806C737.493 364.409 736.335 364.105 734.767 364.291C733.63 368.352 734.497 382.646 734.518 387.915C722.593 385.139 710.881 380.81 699.387 376.654C698.521 368.557 698.888 360.195 698.486 352.039C684.811 347.204 674.735 335.489 665.652 324.714C660.803 326.479 656.214 328.799 651.298 330.436C640.481 318.496 631.564 299.215 625.546 284.191C631.969 282.146 638.546 280.311 644.672 277.472C639.846 255.383 639.051 240.326 647.082 218.98C646.998 218.868 646.912 218.757 646.83 218.644C641.981 212.027 634.233 207.441 628.115 202.024C637.126 192.183 647.292 182.851 657.123 173.826C661.708 177.65 665.399 182.648 669.612 186.896C683.011 179.245 692.802 177.011 707.976 175.938C708.312 167.828 706.858 159.686 707.791 151.593Z"/>
		<path transform="scale(0.03125 0.03125)" d="M704.479 187.692C704.731 187.666 704.983 187.637 705.236 187.614C723.774 185.894 745.088 194.973 759.141 206.586C779.992 223.816 794.394 248.776 796.745 275.964C798.421 295.349 793.92 317.568 781.009 332.696C772.05 343.195 758.309 350.335 744.535 351.463C744.183 351.522 743.83 351.574 743.476 351.619C725.121 353.938 705.666 345.913 691.442 334.765C669.873 317.86 654.957 291.215 651.715 264.01C649.436 244.889 653.854 223.435 665.953 208.121C675.466 196.079 689.434 189.445 704.479 187.692Z"/>
		<path fill="#A79DFD" transform="scale(0.03125 0.03125)" d="M704.344 191.653C720.066 189.9 737.972 196.657 750.788 205.406C772.335 220.229 787.113 243.003 791.87 268.72C795.524 288.05 792.212 309.141 780.884 325.433C772.184 337.947 760.438 344.691 745.556 347.387C728.198 350.052 710.788 343.634 696.663 333.831C675.572 319.193 660.588 293.814 656.192 268.691C652.978 250.32 656.23 229.026 667.147 213.581C676.244 200.711 689.041 194.261 704.344 191.653Z"/>
		<path transform="scale(0.03125 0.03125)" d="M720.117 226.626C737.995 233.813 755.472 242.227 772.927 250.377C772.756 259.31 774.421 284.416 772.373 291.07C768.529 295.338 733.103 308.995 725.618 312.172C720.753 312.374 682.225 293.732 673.499 290.841C673.426 275.748 673.43 260.654 673.509 245.561C689.143 239.529 704.416 232.406 720.117 226.626Z"/>
		<path fill="#8D99AE" transform="scale(0.03125 0.03125)" d="M677.033 250.621C692.591 257.584 707.901 265.082 723.517 271.919C723.529 283.818 723.459 295.718 723.306 307.617C717.735 306.356 711.846 303.127 706.592 300.816L677.279 287.925C676.573 275.605 677.072 262.975 677.033 250.621Z"/>
		<path fill="#8D99AE" transform="scale(0.03125 0.03125)" d="M719.75 231.061C730.908 233.962 755.181 246.053 765.536 252.005C759.533 255.46 732.129 268.055 726.332 269.016C717.277 265.304 708.381 261.107 699.489 257.019C692.951 254.014 686.086 251.15 679.854 247.569C692.673 241.395 706.407 236.023 719.75 231.061Z"/>
		<path fill="#8D99AE" transform="scale(0.03125 0.03125)" d="M768.266 255.003C769.722 257.073 769.015 284.197 769.01 288.896C755.778 295.838 741.536 301.288 727.731 306.99C727.675 306.944 727.607 306.909 727.564 306.852C726.556 305.527 727.137 276.648 727.143 272.782C741.008 267.429 754.86 261.424 768.266 255.003Z"/>
		<path fill="#A79DFD" transform="scale(0.03125 0.03125)" d="M806.377 193.61C810.971 196.559 825.877 219.809 828.898 225.724C825.444 227.585 821.888 229.145 818.29 230.707C810.378 219.697 804.26 207.814 795.528 197.311C799.065 195.768 802.664 194.64 806.377 193.61Z"/>
		<path fill="#A79DFD" transform="scale(0.03125 0.03125)" d="M805.11 325.984C808.241 326.994 819.146 344.035 821.833 347.876C810.568 354.913 799.21 361.8 787.763 368.536C786.628 369.098 785.663 369.831 784.384 369.771C792.676 364.957 802.552 359.249 809.642 352.857C805.745 345.334 801.07 338.198 796.57 331.026C799.356 329.266 802.269 327.658 805.11 325.984Z"/>
		<path fill="#A79DFD" transform="scale(0.03125 0.03125)" d="M752.958 367.724C752.986 367.737 753.022 367.74 753.043 367.763C754.535 369.5 753.794 377.627 753.768 380.227C749.039 382.548 744.285 384.587 739.393 386.532L738.818 386.371C737.558 382.358 738.476 373.139 738.497 368.571C743.383 368.621 748.121 368.465 752.958 367.724Z"/>
		<path fill="#A79DFD" transform="scale(0.03125 0.03125)" d="M726.491 146.546C732.909 146.238 751.426 154.247 758.614 156.525C755.661 158.113 752.516 159.289 749.408 160.537C743.896 158.851 738.48 156.72 732.994 154.93C727.368 153.095 721.624 151.625 716.089 149.524C719.62 148.87 723.069 147.629 726.491 146.546Z"/>
		<path fill="#A79DFD" transform="scale(0.03125 0.03125)" d="M761.433 160.032C763.188 161.776 763.046 175.319 763.227 178.577C759.554 180.024 755.893 181.5 752.244 183.006C750.827 177.364 750.809 170.387 750.35 164.535L761.433 160.032Z"/>
		<path fill="#A79DFD" transform="scale(0.03125 0.03125)" d="M762.713 182.911C765.809 183.538 778.204 195.194 781.759 197.97C779.506 198.996 777.139 199.758 774.806 200.578C768.395 195.445 761.764 190.591 754.933 186.032C757.489 184.921 760.123 183.943 762.713 182.911Z"/>
		<path fill="#A79DFD" transform="scale(0.03125 0.03125)" d="M674.555 168.575C674.69 168.546 674.823 168.49 674.961 168.487C677.437 168.439 681.309 174.034 682.943 175.965C678.436 177.521 674.103 179.476 669.838 181.597C667.074 178.455 664.269 175.349 661.425 172.279C665.72 170.85 670.19 169.782 674.555 168.575Z"/>
		<path transform="scale(0.03125 0.03125)" d="M245.036 620.446C246.091 620.548 247.11 620.742 247.864 621.568C250.928 624.925 249.513 651.306 249.497 656.979C257.223 653.684 265.197 650.838 273.037 647.819C281.27 644.647 289.473 641.247 297.879 638.564C303.152 640.56 308.468 642.44 313.824 644.204C314.153 650.705 313.658 657.439 313.575 663.957L313.458 697.655L313.44 742.392C313.452 748.965 314.467 762.346 312.923 768.263C312.314 768.903 311.819 769.257 310.992 769.582C283.507 780.388 255.672 790.419 228.061 800.91L196.393 812.897C189.86 815.364 183.341 818.122 176.61 819.992C176.281 820.028 175.952 820.072 175.622 820.099C174.439 820.195 173.557 820.093 172.421 819.747C164.825 817.436 93.5855 789.957 92.1414 788.632C91.5013 788.045 91.7336 787.278 91.7055 786.466C94.7835 785.69 99.0071 787.579 101.883 788.63C102.773 767.053 104.953 745.478 106.428 723.93C107.396 709.775 107.731 691.154 109.886 677.691C110.197 675.747 110.918 674.126 111.788 672.373C122.14 667.846 132.858 664.13 143.364 659.974C177.171 646.602 211.332 634.065 245.036 620.446Z"/>
		<path fill="#A79DFD" transform="scale(0.03125 0.03125)" d="M308.277 649.453L308.794 649.448C309.647 650.344 309.458 651.199 309.487 652.414C309.787 664.629 309.056 677.026 309.03 689.264L309.467 765.966C305.147 767.303 300.911 769.224 296.666 770.8C285.697 774.831 274.772 778.98 263.893 783.247C237.864 793.224 211.748 802.968 185.545 812.478L184.427 812.655C183.962 811.715 183.846 810.969 183.806 809.936C183.271 795.893 183.976 781.611 184.023 767.545C183.979 744.074 184.054 720.603 184.247 697.132C196.582 691.632 209.624 687.242 222.222 682.337L308.277 649.453Z"/>
		<path fill="#8D99AE" transform="scale(0.03125 0.03125)" d="M254.342 699.029C256.372 699.206 258.25 699.376 259.992 700.524C262.543 702.204 264.212 704.899 264.747 707.886C265.901 714.323 263.062 722.114 259.372 727.353C255.345 733.07 249.988 736.837 243.109 738.112C240.891 737.85 239.376 737.392 237.53 736.082C234.764 734.118 233.559 731.714 233.143 728.367C232.235 721.069 235.294 713.452 239.836 707.839C243.621 703.162 248.223 699.718 254.342 699.029Z"/>
		<path fill="#A79DFD" transform="scale(0.03125 0.03125)" d="M253.671 706.118C253.905 706.209 254.152 706.272 254.374 706.39C255.684 707.084 257.301 709.425 257.744 710.835C258.591 713.523 257.636 716.536 256.446 718.96C254.034 723.871 250.232 727.461 245.114 729.323C243.452 728.497 242.079 727.675 241.28 725.922C240.226 723.608 240.513 720.837 241.496 718.553C242.714 715.721 245.023 713.106 247.93 711.986C249.186 711.504 250.446 711.035 251.711 710.577C253.048 709.345 253.248 707.809 253.671 706.118Z"/>
		<path fill="#A79DFD" transform="scale(0.03125 0.03125)" d="M113.768 678.981C131.972 686.407 150.524 693.133 168.878 700.192C169.511 738.237 168.907 776.4 168.922 814.459L163.376 812.253C144.129 804.649 124.804 797.244 105.405 790.039C107.268 776.761 107.534 762.94 108.447 749.556C110.021 726.016 111.795 702.491 113.768 678.981Z"/>
		<path fill="#A79DFD" transform="scale(0.03125 0.03125)" d="M232.471 640.039L232.835 640.362C234.023 644.77 233.125 657.723 233.147 663.124L194.478 678.625C187.529 681.378 179.19 683.756 172.89 687.696C169.771 689.646 169.418 692.279 168.647 695.623C159.208 692.246 149.839 688.677 140.545 684.92C136.375 683.328 132.212 681.716 128.057 680.083C135.637 677.67 143.119 674.247 150.598 671.478C178.024 661.326 205.089 650.291 232.471 640.039Z"/>
		<path fill="#A79DFD" transform="scale(0.03125 0.03125)" d="M297.47 643.036C299.693 642.573 304.345 645.019 306.577 645.9C281.159 654.899 256.178 664.962 231.038 674.692C221.489 678.388 186.208 690.53 180.384 695.698C178.819 702.862 179.84 721.71 179.842 730.422L180.03 814.595C177.887 815.471 175.638 816.109 173.316 816.064C173.24 815.935 173.178 815.796 173.088 815.676C172.958 815.502 172.803 815.349 172.66 815.186C173.148 814.322 172.651 735.802 172.625 726.257C172.601 717.73 171.212 698.12 174.043 691.373C179.333 688.276 185.679 686.323 191.386 684.021C204.514 678.701 217.701 673.529 230.945 668.505C252.911 660.076 275.096 650.149 297.47 643.036Z"/>
		<path fill="#A79DFD" transform="scale(0.03125 0.03125)" d="M243.743 625.437L244.644 625.726C246.098 630.906 245.198 652.241 245.15 658.557L237.053 661.824C237.117 656.954 238.306 638.477 235.799 635.613C232.377 634.754 149.581 667.732 138.35 671.979C132.93 674.109 127.532 676.372 121.96 678.074C119.515 677.36 117.181 676.307 114.831 675.331C127.012 669.874 139.956 665.419 152.398 660.536L243.743 625.437Z"/>
		<path transform="scale(0.03125 0.03125)" d="M900.02 355.178C909.085 355.112 916.905 357.262 924.786 361.786C941.883 371.602 956.007 390.152 960.962 409.219C964.126 421.396 965.046 436.131 958.294 447.311C953.163 455.808 946.046 460.236 936.528 462.53C923.515 462.87 913.712 459.43 903.383 451.457C886.4 438.409 875.33 419.12 872.633 397.874C871.309 387.008 872.579 374.479 879.675 365.673C884.875 359.219 891.92 356.02 900.02 355.178Z"/>
		<path fill="#A79DFD" transform="scale(0.03125 0.03125)" d="M899.263 359.104C907.036 358.564 914.586 360.828 921.454 364.331C937.767 372.652 950.464 389.063 956.077 406.336C959.932 418.201 961.603 432.367 955.591 443.803C951.335 451.899 945.202 455.612 936.809 458.264C926.629 459.862 917.42 456.553 909.043 450.908C892.29 439.58 880.77 422.017 877.053 402.138C874.997 391.36 875.48 378.512 882.057 369.245C886.34 363.21 892.17 360.382 899.263 359.104Z"/>
		<path transform="scale(0.03125 0.03125)" d="M903.351 369.166C909.638 368.73 915.813 370.53 921.314 373.478C934.389 380.483 944.204 394.007 948.401 408.076C951.149 417.287 952.509 429.471 947.617 438.174C943.891 444.801 937.848 447.436 930.856 449.25C922.038 449.634 913.768 445.727 906.807 440.616C894.795 431.794 885.934 416.191 883.71 401.527C882.452 393.237 883.199 383.509 888.534 376.681C892.368 371.775 897.381 369.857 903.351 369.166Z"/>
		<path fill="#A79DFD" transform="scale(0.03125 0.03125)" d="M903.509 373.131C910.837 373.012 917.114 374.896 923.256 378.906C935.402 386.836 943.354 400.918 946.213 414.931C947.687 422.157 947.88 431.067 943.481 437.357C940.307 441.895 935.64 443.916 930.383 444.897C922.888 445.283 916.351 442.519 910.286 438.3C898.809 430.317 889.911 415.932 887.474 402.195C886.188 394.949 886.804 386.233 891.258 380.15C894.379 375.888 898.424 373.971 903.509 373.131Z"/>
		<path fill="#474E8F" transform="scale(0.03125 0.03125)" d="M901.812 395.751C902.599 395.882 903.321 396.002 903.999 396.464C907.432 398.802 909.642 413.44 910.7 418.06C913.307 416.078 915.955 413.833 918.821 412.251C922.328 410.317 930.761 403.218 934.438 403.388C935.32 403.429 935.658 404.11 936.239 404.698C936.47 406.03 936.475 405.969 935.753 407.114C928.703 411.609 916.309 420.84 908.789 423.064L908.002 422.447C906.467 418.819 906.2 414.754 905.266 410.94C904.34 407.154 902.78 403.516 902.055 399.682C901.806 398.362 901.758 397.089 901.812 395.751Z"/>
		<path transform="scale(0.03125 0.03125)" d="M356.484 488.311C357.089 488.332 357.387 488.325 357.957 488.4C361.783 488.906 385.436 496.512 386.953 498.869C387.379 499.532 387.212 499.429 387.004 500.268L386.683 500.088L387.539 500.237C383.888 501.33 380.212 503.051 376.562 504.295C359.659 510.058 342.951 516.382 326.061 522.196C348.15 529.294 369.882 537.416 391.818 544.961C403.023 548.814 414.638 551.89 425.737 555.965C427.126 556.475 427.694 556.741 428.479 558.001L428.221 559.087C426.627 560.579 424.398 561.031 422.358 561.687C421.049 562.198 419.619 562.857 418.246 563.157C416.944 563.442 415.93 563.194 414.781 562.544L414.705 561.525C415.777 559.826 417.201 559.232 418.948 558.33C397.323 551.743 376.133 543.739 354.787 536.317C348.532 534.142 322.13 525.907 318.137 522.922C317.19 522.215 317.137 521.991 316.935 520.897C318.441 519.756 372.711 501.236 378.633 499.308C373.591 497.333 361.067 494.922 357.565 491.952C356.228 490.817 356.534 489.91 356.484 488.311Z"/>
		<path transform="scale(0.03125 0.03125)" d="M296.248 392.337C301.795 393.187 319.496 400.001 325.055 402.514C326.547 403.189 328.022 403.752 328.631 405.313L327.977 405.037L328.26 405.774C321.628 410.55 306.266 414.923 298.175 417.832C284.619 422.818 271.023 427.695 257.388 432.462C272.324 440.184 288.295 446.662 303.907 452.887C308.611 454.763 321.429 458.947 324.894 461.157C326.075 461.91 326.127 462.645 326.477 463.895C325.238 464.421 324.374 464.774 322.983 464.542C316.729 463.497 250.758 435.136 248.805 432.273C249.729 430.889 251.066 430.475 252.579 429.831C263.204 425.313 274.503 422.155 285.395 418.33C297.097 414.221 308.538 409.401 320.273 405.378C313.297 402.371 302.027 400.119 296.381 395.481C295.747 394.076 295.918 393.87 296.248 392.337Z"/>
		<path transform="scale(0.03125 0.03125)" d="M209.724 367.392C211.772 369.071 213.886 373.673 214.083 376.325C214.164 377.414 214.127 377.472 213.422 378.351C213.025 378.343 211.898 378.226 211.469 378.365C210.119 378.802 209.749 381.608 209.178 382.965L208.374 383.258L207.263 382.382C207.028 380.67 207.665 375.72 206.899 374.676C205.679 375.334 204.792 375.973 203.349 375.709C202.668 374.85 202.368 374.565 202.649 373.381C203.275 370.74 207.573 368.719 209.724 367.392Z"/>
		<path transform="scale(0.03125 0.03125)" d="M511.048 199.279C511.327 199.315 511.608 199.342 511.885 199.387C513.804 199.7 516.356 200.079 517.461 201.867C517.973 202.695 517.481 203.421 517.252 204.303C517.118 204.332 516.985 204.374 516.848 204.392C515.442 204.575 512.96 204.295 511.985 203.184C510.878 201.92 511.091 200.832 511.048 199.279Z"/>
		<path transform="scale(0.03125 0.03125)" d="M529.522 206.804C531.254 206.959 533.609 207.119 535.02 208.25C536.26 209.244 536.332 210.111 536.596 211.608C534.791 211.698 531.946 211.75 530.589 210.383C529.484 209.269 529.621 208.233 529.522 206.804Z"/>
		<path transform="scale(0.03125 0.03125)" d="M304.206 485.554C305.001 486.946 305.301 487.051 304.961 488.676C303.563 490.362 301.09 490.884 299.076 491.6L298.079 490.465L298.269 489.475C299.802 487.654 302.139 486.673 304.206 485.554Z"/>
		<path transform="scale(0.03125 0.03125)" d="M549.568 214.284C549.836 214.308 550.105 214.327 550.372 214.357C552.208 214.563 553.973 215.253 555.129 216.724C555.451 218.146 555.27 218.3 554.684 219.662C553.285 219.254 551.662 218.818 550.37 218.143C549.121 217.49 548.872 216.891 548.485 215.6L549.568 214.284Z"/>
		<path transform="scale(0.03125 0.03125)" d="M207.668 393.879C207.121 390.247 206.232 387.604 208.011 384.201L208.795 384.161C210.418 387.453 209.567 390.037 208.575 393.395L207.668 393.879Z"/>
		<path transform="scale(0.03125 0.03125)" d="M492.977 191.801C494.722 192.014 496.501 192.158 497.899 193.309C498.658 194.999 498.414 195.638 498.189 197.442C496.675 197.057 494.597 196.708 493.562 195.449C492.63 194.314 492.862 193.147 492.977 191.801Z"/>
		<path transform="scale(0.03125 0.03125)" d="M520.094 202.627C522.205 203.218 525.007 203.691 526.473 205.442C527.103 206.195 526.856 206.687 526.825 207.608C526.55 207.645 526.276 207.685 526 207.717C524.398 207.902 522.407 207.793 521.207 206.576C520.089 205.442 520.117 204.099 520.094 202.627Z"/>
		<path transform="scale(0.03125 0.03125)" d="M559.195 217.639C561.515 218.373 564.119 218.853 565.521 221.018L565.062 222.665C564.467 222.771 563.86 222.901 563.25 222.88C562.08 222.841 560.492 222.475 559.763 221.489C558.769 220.142 559.079 219.177 559.195 217.639Z"/>
		<path transform="scale(0.03125 0.03125)" d="M539.603 210.44C541.14 210.703 542.748 210.928 544.045 211.861C545.381 212.822 545.87 213.955 546.112 215.519C543.95 215.568 542.018 215.393 540.266 214.006C539.473 212.46 539.52 212.109 539.603 210.44Z"/>
		<path transform="scale(0.03125 0.03125)" d="M578.132 225.968C580.108 226.056 582.929 226.422 584.229 228.113C585.062 229.197 584.884 229.848 584.76 231.105C583.248 230.628 581.65 230.192 580.191 229.571C578.988 229.059 578.138 228.507 577.593 227.273L578.132 225.968Z"/>
		<path transform="scale(0.03125 0.03125)" d="M502.391 195.563C504.194 195.978 505.618 196.246 507.088 197.41C507.81 198.881 507.72 199.258 507.604 200.841C505.466 200.599 503.585 200.394 502.089 198.697C501.766 197.244 501.899 196.99 502.391 195.563Z"/>
		<path transform="scale(0.03125 0.03125)" d="M568.113 221.962C569.814 222.136 572.116 222.363 573.528 223.424C574.788 224.371 574.94 225.105 575.268 226.592C573.35 226.791 571.093 226.686 569.525 225.408C568.329 224.434 568.264 223.37 568.113 221.962Z"/>
		<path transform="scale(0.03125 0.03125)" d="M226.551 471.892C227.629 471.919 228.493 472.003 229.479 472.487C231.788 473.62 233.019 475.896 233.662 478.267C233.056 478.316 232.43 478.27 231.822 478.258C229.212 476.582 227.899 474.65 226.551 471.892Z"/>
		<path transform="scale(0.03125 0.03125)" d="M293.403 490.44C294.792 490.796 295.055 490.681 295.872 491.828L295.504 492.696C294.001 493.989 292.765 494.452 290.88 495.024C289.982 494.711 289.466 494.441 288.762 493.798L288.914 492.794C290.205 491.594 291.795 491.087 293.403 490.44Z"/>
		<path transform="scale(0.03125 0.03125)" d="M207.679 423.328C208.497 424.119 209.637 425.077 210.021 426.178C210.755 428.283 210.165 429.759 209.365 431.708C208.762 431.794 208.558 431.546 208.032 431.269C206.675 428.727 207.245 426.049 207.679 423.328Z"/>
		<path transform="scale(0.03125 0.03125)" d="M588.607 229.458C590.273 229.864 591.697 230.284 593.229 231.062C594.284 232.539 594.181 232.765 594.183 234.505C592.231 234.24 590.458 233.857 588.935 232.566C588.284 231.181 588.367 230.989 588.607 229.458Z"/>
		<path transform="scale(0.03125 0.03125)" d="M208.107 413.308C208.526 413.918 208.612 413.991 208.94 414.759C210.046 417.354 209.541 420.06 208.329 422.475C207.656 421.556 206.968 420.592 206.672 419.475C206.017 417 206.783 415.369 208.107 413.308Z"/>
		<path transform="scale(0.03125 0.03125)" d="M209.298 434.213C210.192 434.827 210.823 435.444 211.241 436.476C212.216 438.886 211.812 441.324 210.886 443.661C210.597 443.278 210.481 443.155 210.25 442.667C208.926 439.875 208.109 437.126 209.298 434.213Z"/>
		<path transform="scale(0.03125 0.03125)" d="M215.35 454.733C215.822 454.808 216.235 454.84 216.672 455.086C218.732 456.243 219.964 459.494 220.785 461.546C219.202 461.58 218.438 461.493 217.215 460.416C215.627 459.018 215.397 456.704 215.35 454.733Z"/>
		<path transform="scale(0.03125 0.03125)" d="M250.98 489.413C252.827 489.391 255.079 489.902 256.536 491.085C257.672 492.007 257.68 492.933 257.786 494.287C256.057 493.893 253.957 493.515 252.505 492.426C251.243 491.48 251.106 490.927 250.98 489.413Z"/>
		<path transform="scale(0.03125 0.03125)" d="M207.668 393.879L208.575 393.395C209.326 394.991 209.781 397.181 209.765 398.949C209.755 400.198 209.697 400.34 208.775 401.121L207.779 400.882C206.984 400.1 206.502 399.491 206.366 398.342C206.171 396.682 206.668 395.182 207.668 393.879Z"/>
		<path transform="scale(0.03125 0.03125)" d="M208.14 403.853C208.876 404.884 209.407 405.708 209.558 406.993C209.781 408.889 209.003 410.121 207.91 411.584C206.987 410.508 206.43 409.768 206.329 408.312C206.194 406.368 206.877 405.237 208.14 403.853Z"/>
		<path transform="scale(0.03125 0.03125)" d="M211.648 445.64L213.252 446.241C215.079 448.234 215.13 450.147 215.278 452.745C214.608 452.647 214.017 452.44 213.375 452.234C211.716 450.124 211.612 448.259 211.648 445.64Z"/>
		<path transform="scale(0.03125 0.03125)" d="M279.958 493.487C281.852 493.441 283.64 493.4 285.114 494.681C284.925 495.805 284.737 495.708 283.92 496.422C282.459 496.704 280.511 497.263 279.172 496.433C278.964 495.007 279.268 494.779 279.958 493.487Z"/>
		<path transform="scale(0.03125 0.03125)" d="M234.459 479.889C235.594 479.853 236.712 479.815 237.771 480.288C239.695 481.149 240.373 482.771 241.002 484.656C239.887 484.621 238.981 484.573 237.954 484.099C236 483.196 235.226 481.816 234.459 479.889Z"/>
		<path transform="scale(0.03125 0.03125)" d="M268.845 494.554C270.696 494.349 272.453 494.061 274.3 494.423C275.608 495.379 275.491 495.539 275.878 497.141C274.068 497.191 271.285 497.591 269.711 496.551C268.954 496.051 269.042 495.382 268.845 494.554Z"/>
		<path transform="scale(0.03125 0.03125)" d="M260.372 492.507C261.73 492.774 263.832 492.949 265.043 493.566C266.407 494.261 266.362 494.664 266.679 496.041C264.829 496.193 263.219 496.308 261.485 495.583C260.445 494.364 260.52 494.128 260.372 492.507Z"/>
	</g>
</svg>
